<svg width="147" height="147" viewBox="0 0 147 147" fill="none" xmlns="http://www.w3.org/2000/svg">
<g clip-path="url(#clip0_1202_4467)">
<path d="M102.659 132.092V146.875H-0.824463V132.092C-0.824463 132.092 -0.824463 102.525 50.9172 102.525C102.659 102.525 102.659 132.092 102.659 132.092ZM76.788 61.8711C76.788 56.7543 75.2707 51.7525 72.428 47.498C69.5853 43.2436 65.5448 39.9277 60.8175 37.9696C56.0902 36.0115 50.8885 35.4991 45.87 36.4974C40.8516 37.4956 36.2418 39.9596 32.6237 43.5777C29.0056 47.1958 26.5417 51.8055 25.5435 56.8239C24.5452 61.8424 25.0576 67.0442 27.0157 71.7714C28.9738 76.4987 32.2897 80.5392 36.5441 83.3819C40.7986 86.2246 45.8004 87.7419 50.9172 87.7419C57.7785 87.7419 64.3589 85.0162 69.2106 80.1645C74.0623 75.3128 76.788 68.7325 76.788 61.8711ZM102.215 102.525C106.759 106.042 110.478 110.511 113.108 115.62C115.739 120.728 117.218 126.35 117.442 132.092V146.875H147.009V132.092C147.009 132.092 147.009 105.26 102.215 102.525ZM95.2672 36.0003C90.1801 35.9766 85.2056 37.4973 81.0012 40.3614C85.4912 46.6349 87.9055 54.1563 87.9055 61.8711C87.9055 69.5859 85.4912 77.1073 81.0012 83.3808C85.2056 86.2449 90.1801 87.7656 95.2672 87.7419C102.129 87.7419 108.709 85.0162 113.561 80.1645C118.412 75.3128 121.138 68.7325 121.138 61.8711C121.138 55.0097 118.412 48.4294 113.561 43.5777C108.709 38.7259 102.129 36.0003 95.2672 36.0003Z" fill="#3AA3BA"/>
<path d="M135.232 55.4661V74.7596M125.585 65.1128H144.879" stroke="#3AA3BA" stroke-width="2.75621" stroke-linecap="round" stroke-linejoin="round"/>
</g>
<defs>
<clipPath id="clip0_1202_4467">
<rect width="147" height="147" fill="white"/>
</clipPath>
</defs>
</svg>
