<svg width="136" height="136" viewBox="0 0 136 136" fill="none" xmlns="http://www.w3.org/2000/svg">
<path d="M105.961 16.5509L92.3499 9.40518C80.3995 3.13733 74.4243 0 67.9999 0C61.5755 0 55.6003 3.13052 43.6499 9.40518L41.4653 10.5553L102.191 45.2565L129.521 31.5774C125.125 26.5958 118.034 22.8732 105.961 16.5373M134.34 40.5879L107.131 54.1989V74.8603C107.131 76.214 106.594 77.5122 105.636 78.4695C104.679 79.4267 103.381 79.9644 102.027 79.9644C100.674 79.9644 99.3754 79.4267 98.4181 78.4695C97.4609 77.5122 96.9232 76.214 96.9232 74.8603V59.303L73.104 71.2126V135.456C77.9903 134.238 83.5504 131.325 92.3499 126.704L105.961 119.559C120.599 111.875 127.922 108.037 131.992 101.129C136.055 94.2287 136.055 85.6334 136.055 68.4632V67.6669C136.055 54.7841 136.055 46.7264 134.34 40.5879ZM62.8958 135.456V71.2126L1.66005 40.5879C-0.054931 46.7264 -0.0549316 54.7841 -0.0549316 67.6533V68.4495C-0.0549316 85.6334 -0.0549325 94.2287 4.00794 101.129C8.07762 108.037 15.4003 111.882 30.0389 119.566L43.6499 126.704C52.4494 131.325 58.0094 134.238 62.8958 135.456ZM6.47833 31.5842L67.9999 62.345L91.2134 50.7417L30.7399 16.1834L30.0389 16.5509C17.9728 22.88 10.8747 26.6026 6.47833 31.5911" fill="#4879C2"/>
</svg>
