<svg width="69" height="69" viewBox="0 0 69 69" fill="none" xmlns="http://www.w3.org/2000/svg">
<path d="M22.5581 31.0238L34.721 21.7215L49.4916 41.0343L37.3286 50.3366L22.5581 31.0238ZM13.4988 49.448C13.7649 49.7958 14.1598 49.9815 14.5628 49.9906C14.5628 49.9906 22.0634 51.0348 26.8756 47.5104C26.9354 47.4697 26.9937 47.4271 27.0505 47.3826C27.467 47.0641 27.8167 46.6666 28.0796 46.2129C28.3425 45.7592 28.5135 45.2582 28.5827 44.7384C28.652 44.2187 28.6182 43.6904 28.4833 43.1836C28.3484 42.6769 28.115 42.2018 27.7965 41.7853C27.4779 41.3688 27.0805 41.0191 26.6268 40.7562C26.1731 40.4933 25.672 40.3223 25.1523 40.253C24.6325 40.1838 24.1042 40.2176 23.5975 40.3525C23.0908 40.4874 22.6156 40.7208 22.1991 41.0393L13.7582 47.495C13.4652 47.7197 13.2732 48.0515 13.2245 48.4176C13.1757 48.7837 13.2749 49.1543 13.4988 49.448Z" fill="white" fill-opacity="0.42"/>
<path d="M20.8079 47.1968C20.8181 47.8933 20.2819 48.826 19.3684 49.5624C19.0902 49.7828 18.808 49.9684 18.5241 50.1022M16.9866 48.9532C16.8539 49.4333 16.5583 49.8488 16.1445 50.1197Z" fill="white" fill-opacity="0.42"/>
<path d="M33.6945 23.4804C34.5641 22.8153 34.4883 22.8044 35.1535 23.6731C35.8187 24.5419 36.4794 25.1423 35.6107 25.8066C34.7421 26.471 33.4991 26.3053 32.8348 25.4367C32.1704 24.568 32.8259 24.1448 33.6945 23.4804ZM46.1521 39.156C47.0207 38.4916 47.3233 39.3764 47.9877 40.2451C48.652 41.1137 48.3655 40.8876 47.4959 41.5526C46.6263 42.2177 46.4455 42.8012 45.7822 41.9319C45.1188 41.0625 45.2826 39.8202 46.1521 39.156ZM24.0927 30.7657C24.9623 30.1006 25.6554 29.5493 26.3204 30.4189C26.9855 31.2885 26.8191 32.5305 25.9505 33.1948C25.0818 33.8592 24.6092 32.7887 23.9448 31.92C23.2805 31.0514 23.224 31.43 24.0927 30.7657ZM36.1591 46.5427C37.0277 45.8784 38.2706 46.044 38.935 46.9127C39.5993 47.7813 38.7147 48.0831 37.8459 48.7483C36.9771 49.4135 37.4398 49.6897 36.7756 48.8202C36.1113 47.9507 35.2904 47.2071 36.1591 46.5427Z" fill="#4879C2"/>
<path d="M48.5106 41.1377L47.8879 41.4246L33.765 22.9576L34.3867 22.6714L48.5106 41.1377ZM37.8458 48.7482L37.2132 49.232L23.4367 31.2566L24.0926 30.7656L37.8458 48.7482Z" fill="#4879C2"/>
<path d="M34.8154 22.7433L35.3225 23.4073L23.9445 31.92L23.4364 31.2567L34.8154 22.7433ZM47.9872 40.2459L48.8084 40.3562L37.2197 49.233L36.864 48.7659L47.9872 40.2459Z" fill="#4879C2"/>
<path d="M40.8025 42.1438C42.9454 40.5049 42.536 36.3698 39.8882 32.9077C37.2404 29.4457 33.3568 27.9677 31.2139 29.6065C29.0711 31.2454 29.4805 35.3805 32.1283 38.8426C34.7761 42.3046 38.6597 43.7826 40.8025 42.1438Z" fill="#4879C2"/>
<path d="M44.1264 35.0041L32.9143 43.5793C32.8749 43.6079 32.8317 43.6307 32.7859 43.6471C32.6898 43.6772 32.5866 43.6766 32.4908 43.6454C32.395 43.6142 32.3113 43.5539 32.2513 43.4729L27.7033 37.5253C27.6409 37.4462 27.6046 37.3497 27.5995 37.249C27.5945 37.1484 27.6209 37.0486 27.6752 36.9637C27.7027 36.9238 27.7358 36.8881 27.7734 36.8575L38.9855 28.2824C39.0252 28.2541 39.0686 28.2315 39.1146 28.2155C39.2108 28.1854 39.3139 28.186 39.4098 28.2172C39.5056 28.2484 39.5893 28.3087 39.6492 28.3897L44.1965 34.3363C44.259 34.4154 44.2952 34.512 44.3003 34.6126C44.3053 34.7133 44.2789 34.813 44.2246 34.8979C44.1971 34.9381 44.1641 34.9733 44.1264 35.0041ZM54.7868 17.8695C55.0527 18.2182 55.1285 18.648 55.0317 19.0393C55.0317 19.0393 54.0752 26.5516 49.4135 30.2729C49.3586 30.3199 49.3023 30.365 49.2444 30.4082C48.828 30.7268 48.3529 30.9602 47.8462 31.0951C47.3396 31.2301 46.8113 31.2639 46.2916 31.1947C45.7718 31.1254 45.2708 30.9545 44.8171 30.6917C44.3635 30.4288 43.966 30.0792 43.6474 29.6628C43.3289 29.2463 43.0955 28.7712 42.9605 28.2645C42.8256 27.7579 42.7918 27.2296 42.861 26.7099C42.9302 26.1901 43.1011 25.6891 43.364 25.2355C43.6268 24.7818 43.9765 24.3843 44.3929 24.0658L52.8338 17.6101C53.1275 17.3862 53.4979 17.2878 53.864 17.3366C54.2301 17.3854 54.562 17.5765 54.7868 17.8695Z" fill="white" fill-opacity="0.42"/>
<path d="M50.6992 24.3348C51.3687 24.527 52.4092 24.2537 53.3592 23.565C53.6448 23.3542 53.8977 23.1305 54.1012 22.8915M53.395 21.1068C53.8931 21.1045 54.3715 20.9279 54.7413 20.5996Z" fill="white" fill-opacity="0.42"/>
</svg>
