<svg width="136" height="136" viewBox="0 0 136 136" fill="none" xmlns="http://www.w3.org/2000/svg">
<g clip-path="url(#clip0_1202_4449)">
<path d="M105.961 16.5509L92.3499 9.40518C80.3995 3.13733 74.4243 0 67.9999 0C61.5755 0 55.6003 3.13052 43.6499 9.40518L41.4653 10.5553L102.191 45.2565L129.521 31.5774C125.125 26.5958 118.034 22.8732 105.961 16.5373M134.34 40.5879L107.131 54.1989V74.8603C107.131 76.214 106.594 77.5122 105.636 78.4695C104.679 79.4267 103.381 79.9644 102.027 79.9644C100.674 79.9644 99.3754 79.4267 98.4181 78.4695C97.4609 77.5122 96.9232 76.214 96.9232 74.8603V59.303L73.104 71.2126V135.456C77.9903 134.238 83.5504 131.325 92.3499 126.704L105.961 119.559C120.599 111.875 127.922 108.037 131.992 101.129C136.055 94.2287 136.055 85.6334 136.055 68.4632V67.6669C136.055 54.7841 136.055 46.7264 134.34 40.5879ZM62.8958 135.456V71.2126L1.66005 40.5879C-0.054931 46.7264 -0.0549316 54.7841 -0.0549316 67.6533V68.4495C-0.0549316 85.6334 -0.0549325 94.2287 4.00794 101.129C8.07762 108.037 15.4003 111.882 30.0389 119.566L43.6499 126.704C52.4494 131.325 58.0094 134.238 62.8958 135.456ZM6.47833 31.5842L67.9999 62.345L91.2134 50.7417L30.7399 16.1834L30.0389 16.5509C17.9728 22.88 10.8747 26.6026 6.47833 31.5911" fill="#4879C2"/>
<path d="M23.1298 90.4975L35.2928 81.1951L50.0634 100.508L37.9004 109.81L23.1298 90.4975ZM14.0706 108.922C14.3366 109.269 14.7316 109.455 15.1346 109.464C15.1346 109.464 22.6352 110.508 27.4474 106.984C27.5071 106.943 27.5654 106.901 27.6223 106.856C28.0388 106.538 28.3885 106.14 28.6514 105.687C28.9143 105.233 29.0853 104.732 29.1545 104.212C29.2238 103.692 29.19 103.164 29.0551 102.657C28.9202 102.151 28.6868 101.675 28.3682 101.259C28.0497 100.842 27.6522 100.493 27.1985 100.23C26.7448 99.9669 26.2438 99.7959 25.7241 99.7267C25.2043 99.6574 24.676 99.6912 24.1693 99.8261C23.6626 99.961 23.1874 100.194 22.7709 100.513L14.33 106.969C14.037 107.193 13.845 107.525 13.7962 107.891C13.7475 108.257 13.8467 108.628 14.0706 108.922Z" fill="white" fill-opacity="0.42"/>
<path d="M21.3797 106.67C21.3899 107.367 20.8536 108.3 19.9402 109.036C19.6619 109.256 19.3798 109.442 19.0959 109.576M17.5583 108.427C17.4257 108.907 17.13 109.322 16.7163 109.593Z" fill="white" fill-opacity="0.42"/>
<path d="M34.2663 82.954C35.1359 82.289 35.0601 82.278 35.7253 83.1468C36.3905 84.0155 37.0511 84.6159 36.1825 85.2803C35.3138 85.9446 34.0709 85.779 33.4066 84.9103C32.7422 84.0417 33.3977 83.6184 34.2663 82.954ZM46.7239 98.6296C47.5925 97.9652 47.8951 98.85 48.5595 99.7187C49.2238 100.587 48.9373 100.361 48.0677 101.026C47.1981 101.691 47.0173 102.275 46.3539 101.406C45.6905 100.536 45.8544 99.2938 46.7239 98.6296ZM24.6644 90.2393C25.534 89.5742 26.2271 89.023 26.8922 89.8926C27.5573 90.7622 27.3909 92.0041 26.5223 92.6685C25.6536 93.3328 25.181 92.2623 24.5166 91.3936C23.8523 90.525 23.7958 90.9037 24.6644 90.2393ZM36.7309 106.016C37.5995 105.352 38.8424 105.518 39.5068 106.386C40.1711 107.255 39.2864 107.557 38.4177 108.222C37.5489 108.887 38.0116 109.163 37.3473 108.294C36.6831 107.424 35.8622 106.681 36.7309 106.016Z" fill="#4879C2"/>
<path d="M49.0824 100.611L48.4597 100.898L34.3368 82.4313L34.9585 82.1451L49.0824 100.611ZM38.4176 108.222L37.785 108.706L24.0085 90.7302L24.6644 90.2392L38.4176 108.222Z" fill="#4879C2"/>
<path d="M35.3872 82.2169L35.8943 82.8809L24.5163 91.3936L24.0082 90.7303L35.3872 82.2169ZM48.559 99.7195L49.3802 99.8298L37.7915 108.707L37.4358 108.24L48.559 99.7195Z" fill="#4879C2"/>
<path d="M41.3743 101.617C43.5171 99.9785 43.1078 95.8434 40.46 92.3814C37.8121 88.9193 33.9286 87.4413 31.7857 89.0802C29.6429 90.719 30.0522 94.8542 32.7 98.3162C35.3479 101.778 39.2315 103.256 41.3743 101.617Z" fill="#4879C2"/>
<path d="M44.6982 94.4778L33.486 103.053C33.4467 103.082 33.4035 103.104 33.3577 103.121C33.2615 103.151 33.1584 103.15 33.0626 103.119C32.9668 103.088 32.8831 103.028 32.8231 102.947L28.2751 96.9989C28.2126 96.9199 28.1764 96.8233 28.1713 96.7226C28.1663 96.622 28.1927 96.5223 28.2469 96.4374C28.2745 96.3975 28.3076 96.3617 28.3452 96.3312L39.5573 87.756C39.5969 87.7277 39.6404 87.7052 39.6864 87.6891C39.7826 87.659 39.8857 87.6596 39.9815 87.6908C40.0773 87.7221 40.161 87.7824 40.221 87.8634L44.7683 93.81C44.8307 93.8891 44.867 93.9856 44.8721 94.0863C44.8771 94.1869 44.8507 94.2866 44.7964 94.3716C44.7689 94.4118 44.7359 94.447 44.6982 94.4778ZM55.3586 77.3432C55.6245 77.6919 55.7003 78.1216 55.6035 78.5129C55.6035 78.5129 54.647 86.0252 49.9853 89.7465C49.9304 89.7935 49.874 89.8386 49.8162 89.8819C49.3998 90.2004 48.9247 90.4338 48.418 90.5688C47.9113 90.7037 47.3831 90.7375 46.8633 90.6683C46.3436 90.5991 45.8426 90.4282 45.3889 90.1653C44.9352 89.9025 44.5378 89.5528 44.2192 89.1364C43.9007 88.7199 43.6673 88.2448 43.5323 87.7382C43.3974 87.2315 43.3636 86.7032 43.4328 86.1835C43.502 85.6638 43.6729 85.1628 43.9358 84.7091C44.1986 84.2554 44.5482 83.858 44.9647 83.5394L53.4056 77.0838C53.6992 76.8598 54.0697 76.7614 54.4358 76.8102C54.8019 76.859 55.1338 77.0501 55.3586 77.3432Z" fill="white" fill-opacity="0.42"/>
<path d="M51.2709 83.8084C51.9405 84.0006 52.981 83.7274 53.931 83.0387C54.2165 82.8278 54.4695 82.6041 54.673 82.3652M53.9668 80.5804C54.4649 80.5781 54.9432 80.4016 55.3131 80.0732Z" fill="white" fill-opacity="0.42"/>
</g>
<defs>
<clipPath id="clip0_1202_4449">
<rect width="136" height="136" fill="white"/>
</clipPath>
</defs>
</svg>
